{
  "accessors": [
    {
      "bufferView": 2,
      "componentType": 5126,
      "count": 65532,
      "max": [
        -1.2476730346679688,
        10.354333877563477,
        3.7704219818115234
      ],
      "min": [
        -4.8601970672607422,
        6.958186149597168,
        0.1920820027589798
      ],
      "type": "VEC3"
    },
    {
      "bufferView": 2,
      "byteOffset": 786384,
      "componentType": 5126,
      "count": 65532,
      "max": [
        0.99998664855957031,
        0.99994784593582153,
        0.998862624168396
      ],
      "min": [
        -0.9999879002571106,
        -0.99995273351669312,
        -0.99996078014373779
      ],
      "type": "VEC3"
    },
    {
      "bufferView": 3,
      "componentType": 5126,
      "count": 65532,
      "max": [
        0.86666667461395264,
        0.85490196943283081,
        0.84313726425170898,
        1
      ],
      "min": [
        0.035294119268655777,
        0.039215687662363052,
        0.031372550874948502,
        1
      ],
      "type": "VEC4"
    },
    {
      "bufferView": 1,
      "componentType": 5126,
      "count": 65532,
      "max": [
        0.77487301826477051,
        1
      ],
      "min": [
        0,
        0
      ],
      "type": "VEC2"
    },
    {
      "bufferView": 0,
      "componentType": 5125,
      "count": 359424,
      "max": [
        65531
      ],
      "min": [
        0
      ],
      "type": "SCALAR"
    },
    {
      "bufferView": 2,
      "byteOffset": 1572768,
      "componentType": 5126,
      "count": 65532,
      "max": [
        -1.1436829566955566,
        10.426353454589844,
        4.0986928939819336
      ],
      "min": [
        -4.8601970672607422,
        7.0011739730834961,
        0.23477700352668762
      ],
      "type": "VEC3"
    },
    {
      "bufferView": 2,
      "byteOffset": 2359152,
      "componentType": 5126,
      "count": 65532,
      "max": [
        0.99998664855957031,
        0.99994784593582153,
        0.99997341632843018
      ],
      "min": [
        -0.9999879002571106,
        -0.99926674365997314,
        -0.99999254941940308
      ],
      "type": "VEC3"
    },
    {
      "bufferView": 3,
      "byteOffset": 1048512,
      "componentType": 5126,
      "count": 65532,
      "max": [
        0.98823529481887817,
        0.98823529481887817,
        0.99215686321258545,
        1
      ],
      "min": [
        0.14901961386203766,
        0.14117647707462311,
        0.14901961386203766,
        1
      ],
      "type": "VEC4"
    },
    {
      "bufferView": 1,
      "byteOffset": 524256,
      "componentType": 5126,
      "count": 65532,
      "max": [
        0.80226999521255493,
        1
      ],
      "min": [
        0.0023990001063793898,
        0.0056549999862909317
      ],
      "type": "VEC2"
    },
    {
      "bufferView": 0,
      "byteOffset": 1437696,
      "componentType": 5125,
      "count": 342495,
      "max": [
        65531
      ],
      "min": [
        0
      ],
      "type": "SCALAR"
    },
    {
      "bufferView": 2,
      "byteOffset": 3145536,
      "componentType": 5126,
      "count": 29170,
      "max": [
        -1.1437369585037231,
        10.522753715515137,
        4.0986928939819336
      ],
      "min": [
        -4.2211771011352539,
        8.0189933776855469,
        0.85341298580169678
      ],
      "type": "VEC3"
    },
    {
      "bufferView": 2,
      "byteOffset": 3495576,
      "componentType": 5126,
      "count": 29170,
      "max": [
        0.99984079599380493,
        0.99996602535247803,
        0.9999014139175415
      ],
      "min": [
        -0.99598735570907593,
        -0.99999868869781494,
        -0.99901401996612549
      ],
      "type": "VEC3"
    },
    {
      "bufferView": 3,
      "byteOffset": 2097024,
      "componentType": 5126,
      "count": 29170,
      "max": [
        0.9686274528503418,
        0.9686274528503418,
        0.98039215803146362,
        1
      ],
      "min": [
        0.13333334028720856,
        0.12156862765550613,
        0.12156862765550613,
        1
      ],
      "type": "VEC4"
    },
    {
      "bufferView": 1,
      "byteOffset": 1048512,
      "componentType": 5126,
      "count": 29170,
      "max": [
        0.79624402523040771,
        1
      ],
      "min": [
        0.006748999934643507,
        0.0030950000509619713
      ],
      "type": "VEC2"
    },
    {
      "bufferView": 0,
      "byteOffset": 2807676,
      "componentType": 5125,
      "count": 138081,
      "max": [
        29169
      ],
      "min": [
        0
      ],
      "type": "SCALAR"
    }
  ],
  "asset": {
    "extras": {
      "author": "Archaeological museum (https://sketchfab.com/archmsfbsu)",
      "license": "CC0-1.0 (http://creativecommons.org/publicdomain/zero/1.0/)",
      "source": "https://sketchfab.com/3d-models/no24-5645e10d9b92499baa4ced217535c8bc",
      "title": "Сосуд №24"
    },
    "generator": "Sketchfab-7.80.0",
    "version": "2.0"
  },
  "bufferViews": [
    {
      "buffer": 0,
      "byteLength": 3360000,
      "byteOffset": 0,
      "name": "floatBufferViews",
      "target": 34963
    },
    {
      "buffer": 0,
      "byteLength": 1281872,
      "byteOffset": 3360000,
      "byteStride": 8,
      "name": "floatBufferViews",
      "target": 34962
    },
    {
      "buffer": 0,
      "byteLength": 3845616,
      "byteOffset": 4641872,
      "byteStride": 12,
      "name": "floatBufferViews",
      "target": 34962
    },
    {
      "buffer": 0,
      "byteLength": 2563744,
      "byteOffset": 8487488,
      "byteStride": 16,
      "name": "floatBufferViews",
      "target": 34962
    }
  ],
  "buffers": [
    {
      "byteLength": 11051232,
      "uri": "scene.bin"
    }
  ],
  "images": [
    {
      "uri": "textures/S_24_baseColor.jpeg"
    }
  ],
  "materials": [
    {
      "doubleSided": true,
      "emissiveFactor": [
        0,
        0,
        0
      ],
      "name": "S_24",
      "pbrMetallicRoughness": {
        "baseColorFactor": [
          1,
          1,
          1,
          1
        ],
        "baseColorTexture": {
          "index": 0,
          "texCoord": 0
        },
        "metallicFactor": 0,
        "roughnessFactor": 1
      }
    }
  ],
  "meshes": [
    {
      "primitives": [
        {
          "attributes": {
            "COLOR_0": 2,
            "NORMAL": 1,
            "POSITION": 0,
            "TEXCOORD_0": 3
          },
          "indices": 4,
          "material": 0,
          "mode": 4
        }
      ]
    },
    {
      "primitives": [
        {
          "attributes": {
            "COLOR_0": 7,
            "NORMAL": 6,
            "POSITION": 5,
            "TEXCOORD_0": 8
          },
          "indices": 9,
          "material": 0,
          "mode": 4
        }
      ]
    },
    {
      "primitives": [
        {
          "attributes": {
            "COLOR_0": 12,
            "NORMAL": 11,
            "POSITION": 10,
            "TEXCOORD_0": 13
          },
          "indices": 14,
          "material": 0,
          "mode": 4
        }
      ]
    }
  ],
  "nodes": [
    {
      "children": [
        1
      ],
      "name": "RootNode (gltf orientation matrix)",
      "rotation": [
        -0.70710678118654746,
        -0,
        -0,
        0.70710678118654757
      ]
    },
    {
      "children": [
        2
      ],
      "matrix": [
        0.31503918766975403,
        -0.94907182455062866,
        -0.0035983854904770851,
        0,
        -0.83932173252105713,
        -0.28037413954734802,
        0.46575680375099182,
        0,
        -0.44304555654525757,
        -0.14371144771575928,
        -0.88490545749664307,
        0,
        6.4646177291870117,
        8.5792322158813477,
        -0.12712119519710541,
        1
      ],
      "name": "RootNode (model correction matrix)"
    },
    {
      "children": [
        3,
        4,
        5
      ],
      "name": "S_24.obj.cleaner.materialmerger.gles"
    },
    {
      "mesh": 0,
      "name": ""
    },
    {
      "mesh": 1,
      "name": ""
    },
    {
      "mesh": 2,
      "name": ""
    }
  ],
  "samplers": [
    {
      "magFilter": 9729,
      "minFilter": 9987,
      "wrapS": 10497,
      "wrapT": 10497
    }
  ],
  "scene": 0,
  "scenes": [
    {
      "name": "OSG_Scene",
      "nodes": [
        0
      ]
    }
  ],
  "textures": [
    {
      "sampler": 0,
      "source": 0
    }
  ]
}

